<mxfile host="app.diagrams.net" modified="2023-04-16T13:49:48.829Z" agent="Mozilla/5.0 (Macintosh; Intel Mac OS X 10_15_7) AppleWebKit/537.36 (KHTML, like Gecko) Chrome/112.0.0.0 Safari/537.36" version="21.1.8" etag="NwWSxMW5Qb_Q3urbMf8c" type="github">
  <diagram name="Page-1" id="DMevMT1jktoyunLrkMF0">
    <mxGraphModel>
      <root>
        <mxCell id="0" />
        <mxCell id="1" parent="0" />
      </root>
    </mxGraphModel>
  </diagram>
</mxfile>
